<svg xmlns="http://www.w3.org/2000/svg" xmlns:svg="http://www.w3.org/2000/svg" id="Layer_1" x="0" y="0" enable-background="new 0 0 317.5 337.3" version="1.1" viewBox="0 0 317.5 337.3" xml:space="preserve"><metadata id="metadata112"/><g id="g316_5_" transform="translate(385.579,529.5928)"><g id="g4"><path id="path2" fill="#33A1DB" d="M-84.9-369.9v63.5c0,7.9-4.2,15.9-13.4,15.9h-1.1L-95-273l-29.9-17.6H-203c-4.4,0-8.7-1.8-12.1-4.6 c-1.7-1.4-3.1-3-4.2-4.8v0c-1.2-2.1-1.9-4.3-1.9-6.5v-2.7h102.1c10.4,0,15.6-8.1,15.6-17v-57.3h5.2 C-89-383.5-84.9-377.8-84.9-369.9z"/></g></g><g id="path1078_9_"><polygon id="polygon7" fill="#616263" points="32.6 254.6 54.8 254.6 69.5 278.8 84.2 254.6 106.4 254.6 106.4 321.3 84.6 321.3 84.6 288.9 69.5 312.2 69.1 312.2 54.1 288.9 54.1 321.3 32.6 321.3"/></g><g id="path1080_9_"><rect id="rect10" width="21.9" height="66.7" x="117.2" y="254.6" fill="#616263"/></g><g id="g1084_5_"><g id="g1090_5_" transform="translate(297.5875,384.2569)"><path id="path1092_5_" fill="#616263" d="M-152.8-74l11.7-13.9c7.1,5.4,15.3,7.7,22.9,7.7 c3.9,0,5.6-1,5.6-2.8v-0.2c0-1.9-2.1-2.9-9.1-4.3c-14.7-3-27.6-7.2-27.6-21.1v-0.2c0-12.4,9.7-22.1,27.8-22.1c12.6,0,22,3,29.6,9 l-10.7,14.8c-6.2-4.5-13.6-6.5-19.7-6.5c-3.3,0-4.8,1.1-4.8,2.7v0.2c0,1.8,1.8,2.9,8.7,4.2c16.8,3.1,28,8,28,21.2v0.2 c0,13.8-11.3,22.2-28.9,22.2C-132.5-62.9-144.5-66.7-152.8-74L-152.8-74z"/></g><g id="g1094_5_" transform="translate(340.0289,418.4302)"><path id="path1096_5_" fill="#616263" d="M-96.6-163.8h-29.5v66.5h21.9v-18.7h7.1 c17.7,0,29.8-8.4,29.8-24.2v-0.2C-67.3-156-79.2-163.8-96.6-163.8z M-88.9-138.9c0,4.7-3.8,7.2-9.4,7.2h-5.9v-14.6h6 c5.8,0,9.3,2.4,9.3,7.2V-138.9z"/></g></g><rect id="rect18" width="21.4" height="33.3" x="140.4" y="73.8" fill="#33A1DB"/><rect id="rect20" width="21.4" height="33.3" x="219.8" y="73.8" fill="#33A1DB"/><rect id="rect22" width="21.4" height="33.3" x="180.1" y="73.8" fill="#33A1DB"/><path id="path24" fill="#33A1DB" d="M159.1,58.3c0.8,5.1-2.7,9.9-7.8,10.7c-5.1,0.8-9.9-2.7-10.7-7.8s6.2-21.6,6.2-21.6S158.3,53.2,159.1,58.3z"/><path id="path26" fill="#33A1DB" d="M240.5,60.9c-0.6,5.1-5.3,8.8-10.4,8.2c-5.1-0.6-8.8-5.3-8.2-10.4c0.6-5.1,11.7-19.1,11.7-19.1 S241.1,55.7,240.5,60.9z"/><path id="path28" fill="#33A1DB" d="M200.2,59.8c0,5.2-4.2,9.4-9.4,9.4c-5.2,0-9.4-4.2-9.4-9.4c0-5.2,9.4-20.4,9.4-20.4S200.2,54.7,200.2,59.8z"/><ellipse id="ellipse30" cx="126.1" cy="90.5" fill="#33A1DB" stroke="#34A1DB" stroke-miterlimit="10" stroke-width="4.907" rx="4.8" ry="4.6" transform="matrix(-0.5949 -0.8038 0.8038 -0.5949 128.3562 245.6881)"/><circle id="circle32" cx="161.9" cy="81" r="6.2" fill="#EFD13B" stroke="#EFD039" stroke-miterlimit="10" stroke-width="1.972"/><circle id="circle34" cx="174.4" cy="55.7" r="5.2" fill="#D9346B" stroke="#D9336B" stroke-miterlimit="10" stroke-width="1.231"/><circle id="circle36" cx="153.7" cy="55.7" r="2.6" fill="#33A1DB" stroke="#34A1DB" stroke-miterlimit="10" stroke-width="2.748"/><circle id="circle38" cx="133.1" cy="55.1" r="2.6" fill="#D9346B" stroke="#D9336B" stroke-miterlimit="10" stroke-width="1.231"/><g id="g320-4_5_" transform="translate(349.7253,569.1839)"><g id="g42"><path id="path40" fill="#33A1DB" d="M-129.1-426.5c1.8,2.6,2.6,7.7,2.6,15.3c0,5.2-0.4,9-1.1,11.4c-0.8,2.5-2,4.2-3.6,5.4 c-1.6,1.1-3.5,1.7-5.8,1.7c-3.3,0-5.9-1.3-7.7-4c-1.8-2.7-2.6-7.6-2.6-14.9c0-7.2,0.8-12.2,2.4-14.8c1.6-2.7,4.2-4,7.8-4 C-133.5-430.4-130.9-429.1-129.1-426.5z"/></g><g id="g46"><path id="path44" fill="#33A1DB" d="M-98.4-464h-118.6c-3.2,0-6.6,0.9-9.7,2.3c-7,3.3-12.7,9.7-12.7,15.8v71.9c0,8.2,10.2,14.2,19.9,15.1 l-6.4,24.1l40.7-23.9h86.8c10.4,0,20-6.3,20-15.3v-71.9C-78.4-454.8-88.1-464-98.4-464z M-173.9-382.8h-22v-38.1 c-3.6,2-7,3.6-10.3,4.8c-3.3,1.2-7.5,2.4-12.5,3.5v-13c7.4-1.7,13.2-3.8,17.3-6.3c4.1-2.5,7.3-5.5,9.6-9.1l18,0V-382.8z M-112-389 c-4.8,4.8-13.1,7.2-24.8,7.2c-6.6,0-11.9-0.8-16-2.3c-4.1-1.5-7.4-3.8-10-6.8c-1.9-2.1-3.4-5-4.4-8.6c-1-3.7-1.6-7.7-1.6-12.1 c0-10.9,2.7-18.5,8-22.8c5.4-4.3,13.5-6.5,24.5-6.5c5.3,0,9.6,0.5,13,1.4c3.4,0.9,6.1,2.2,8.3,3.7c2.1,1.5,3.8,3.1,5,4.8 c1.2,1.7,2.2,3.6,3,5.9c1.5,4.3,2.2,8.7,2.2,13.3C-104.8-401.4-107.2-393.8-112-389z"/></g></g><g id="g59"><path id="path49" fill="#FFF" d="M250.3,188.1v-4.2l9.3-2.1l-9.3-2v-3.9l14.9,4.1c1.7,0.5,2.8,0.9,3.4,1.4c0.8,0.7,1.3,1.7,1.3,3.1 c0,0.6-0.1,1.5-0.3,2.6l-3.7,0.3c0.2-0.6,0.4-1.2,0.4-1.9c0-0.5-0.1-0.8-0.4-1.1c-0.3-0.3-0.8-0.5-1.5-0.7L250.3,188.1z"/><path id="path51" fill="#FFF" d="M258.6,163.7v7.9c0.9-0.1,1.5-0.2,1.9-0.5c0.6-0.4,0.9-0.9,0.9-1.5c0-0.4-0.1-0.8-0.4-1.1 c-0.2-0.2-0.5-0.4-0.9-0.7l0.5-3.9c1.4,0.6,2.4,1.3,3,2.2c0.6,0.8,0.9,2.1,0.9,3.6c0,1.4-0.3,2.4-0.8,3.2s-1.3,1.4-2.5,1.9 s-2.5,0.8-4,0.8c-2.2,0-3.9-0.5-5.3-1.6c-1.3-1-2-2.5-2-4.3c0-1.5,0.3-2.6,0.9-3.5c0.6-0.9,1.5-1.5,2.6-2s2.6-0.7,4.5-0.7H258.6z M256,167.7c-1,0.1-1.8,0.3-2.2,0.6c-0.4,0.3-0.7,0.8-0.7,1.3c0,0.6,0.3,1.1,1,1.5c0.4,0.2,1,0.4,1.9,0.5V167.7z"/><path id="path53" fill="#FFF" d="M254.8,158.3l-0.5,3.8c-0.9-0.1-1.6-0.3-2.1-0.6c-0.5-0.3-1-0.7-1.3-1.2c-0.3-0.4-0.5-0.9-0.6-1.5 c-0.1-0.6-0.2-1.3-0.2-2.1c0-1.2,0.1-2.1,0.3-2.9c0.2-0.7,0.6-1.3,1.1-1.8c0.4-0.3,0.9-0.6,1.7-0.8s1.4-0.3,2.1-0.3h6.1 c0.7,0,1.2,0,1.5-0.1s0.8-0.2,1.4-0.4v3.7c-0.4,0.1-0.6,0.2-0.8,0.3c-0.2,0-0.5,0.1-0.9,0.1c0.7,0.5,1.2,1,1.4,1.5 c0.4,0.7,0.6,1.5,0.6,2.4c0,1.2-0.4,2.2-1.2,2.8c-0.8,0.6-1.7,1-2.8,1c-1.1,0-1.9-0.2-2.6-0.7c-0.7-0.5-1.2-1.3-1.5-2.5 c-0.4-1.5-0.7-2.4-0.8-2.9c-0.2-0.4-0.4-0.9-0.6-1.4c-0.7,0-1.1,0.1-1.4,0.3s-0.4,0.6-0.4,1.1c0,0.6,0.1,1.1,0.4,1.5 C253.8,157.9,254.2,158.1,254.8,158.3z M257.6,154.8c0.3,0.5,0.5,1.1,0.7,1.7c0.3,0.8,0.6,1.3,0.9,1.5c0.3,0.2,0.6,0.3,1,0.3 c0.4,0,0.8-0.1,1-0.3s0.4-0.5,0.4-1c0-0.4-0.1-0.9-0.4-1.2c-0.3-0.4-0.6-0.6-1.1-0.8c-0.4-0.2-1-0.2-1.6-0.2H257.6z"/><path id="path55" fill="#FFF" d="M250.3,148.5v-3.7h2.3c-1-0.4-1.7-0.7-2-1.1c-0.4-0.4-0.6-0.8-0.6-1.4c0-0.6,0.2-1.2,0.7-1.9l3.8,1.2 c-0.3,0.5-0.4,0.8-0.4,1.1c0,0.5,0.3,0.9,0.9,1.2c0.8,0.4,2.3,0.6,4.6,0.6h4.7v4H250.3z"/><path id="path57" fill="#FFF" d="M260.4,140l-0.5-3.9c0.6-0.2,1.1-0.4,1.3-0.7c0.3-0.3,0.4-0.7,0.4-1.2c0-0.5-0.2-0.9-0.5-1.2 c-0.2-0.2-0.5-0.3-0.8-0.3c-0.4,0-0.7,0.1-0.9,0.4c-0.1,0.2-0.3,0.8-0.5,1.7c-0.3,1.4-0.6,2.3-0.9,2.9c-0.3,0.5-0.7,1-1.4,1.4 c-0.7,0.4-1.4,0.5-2.2,0.5c-0.9,0-1.7-0.2-2.4-0.6c-0.7-0.4-1.2-0.9-1.5-1.6c-0.3-0.7-0.5-1.6-0.5-2.8c0-1.2,0.1-2.1,0.4-2.7 c0.3-0.6,0.6-1.1,1.2-1.5c0.5-0.4,1.3-0.7,2.2-1l0.5,3.8c-0.4,0.1-0.8,0.3-1,0.5c-0.3,0.3-0.4,0.7-0.4,1.1c0,0.4,0.1,0.8,0.3,1 c0.2,0.2,0.5,0.3,0.8,0.3c0.3,0,0.6-0.1,0.8-0.4c0.2-0.3,0.3-0.8,0.5-1.7c0.2-1.3,0.5-2.3,0.8-2.9c0.4-0.6,0.9-1.1,1.5-1.5 c0.7-0.3,1.4-0.5,2.2-0.5c0.8,0,1.6,0.2,2.3,0.5c0.8,0.4,1.4,0.9,1.8,1.7c0.5,0.8,0.7,1.8,0.7,3.2c0,1.9-0.4,3.2-1.1,4 C262.7,139.2,261.7,139.7,260.4,140z"/></g><circle id="circle61" cx="121.4" cy="189.6" r="3.5" fill="#33A1DB" stroke="#34A1DB" stroke-miterlimit="10" stroke-width="3.654"/><ellipse id="ellipse63" cx="112" cy="71.8" fill="#EFD13B" stroke="#EFD039" stroke-miterlimit="10" stroke-width="2.073" rx="4" ry="3.8" transform="matrix(-0.9968 7.988697e-02 -7.988697e-02 -0.9968 229.3105 134.5191)"/><circle id="circle65" cx="132.8" cy="114.9" r="6.7" fill="#D9346B" stroke="#D9336B" stroke-miterlimit="10" stroke-width="1.648"/><circle id="circle67" cx="92.3" cy="144" r="3.5" fill="#33A1DB" stroke="#34A1DB" stroke-miterlimit="10" stroke-width="3.654"/><ellipse id="ellipse69" cx="104.2" cy="172.1" fill="#EFD13B" stroke="#EFD039" stroke-miterlimit="10" stroke-width="2.073" rx="4" ry="3.8" transform="matrix(-0.4958 0.8684 -0.8684 -0.4958 305.3535 166.8502)"/><circle id="circle71" cx="118" cy="154" r="6.7" fill="#D9346B" stroke="#D9336B" stroke-miterlimit="10" stroke-width="1.648"/><circle id="circle73" cx="100.4" cy="105.1" r="3.5" fill="#33A1DB" stroke="#34A1DB" stroke-miterlimit="10" stroke-width="3.654"/><ellipse id="ellipse75" cx="36" cy="194.3" fill="#EFD13B" stroke="#EFD039" stroke-miterlimit="10" stroke-width="2.073" rx="4" ry="3.8" transform="matrix(-0.1316 0.9913 -0.9913 -0.1316 233.2874 184.2182)"/><circle id="circle77" cx="71" cy="134.2" r="6.7" fill="#D9346B" stroke="#D9336B" stroke-miterlimit="10" stroke-width="1.648"/><ellipse id="ellipse79" cx="82.2" cy="178.8" fill="#33A1DB" stroke="#34A1DB" stroke-miterlimit="10" stroke-width="4.997" rx="4.9" ry="4.6" transform="matrix(-0.5949 -0.8038 0.8038 -0.5949 -12.5974 351.315)"/><circle id="circle81" cx="70.1" cy="157.6" r="6.4" fill="#EFD13B" stroke="#EFD039" stroke-miterlimit="10" stroke-width="2.009"/><circle id="circle83" cx="55.5" cy="176.2" r="5.3" fill="#D9346B" stroke="#D9336B" stroke-miterlimit="10" stroke-width="1.254"/><circle id="circle85" cx="82.3" cy="119.4" r="2.7" fill="#33A1DB" stroke="#34A1DB" stroke-miterlimit="10" stroke-width="2.799"/><circle id="circle87" cx="92.1" cy="127.5" r="2.7" fill="#D9346B" stroke="#D9336B" stroke-miterlimit="10" stroke-width="1.254"/><ellipse id="ellipse89" cx="75.3" cy="93.6" fill="#EFD13B" stroke="#EFD039" stroke-miterlimit="10" stroke-width="2.073" rx="4" ry="3.8" transform="matrix(0.2065 0.9784 -0.9784 0.2065 151.3602 0.6095)"/><circle id="circle91" cx="280.5" cy="20.2" r="3.5" fill="#33A1DB" stroke="#34A1DB" stroke-miterlimit="10" stroke-width="3.654"/><ellipse id="ellipse93" cx="33.5" cy="121.6" fill="#EFD13B" stroke="#EFD039" stroke-miterlimit="10" stroke-width="2.073" rx="4" ry="3.8" transform="matrix(-0.9131 0.4078 -0.4078 -0.9131 113.597 218.9739)"/><circle id="circle95" cx="81" cy="78.4" r="6.7" fill="#D9346B" stroke="#D9336B" stroke-miterlimit="10" stroke-width="1.648"/><ellipse id="ellipse97" cx="250" cy="39.8" fill="#33A1DB" stroke="#34A1DB" stroke-miterlimit="10" stroke-width="4.997" rx="4.9" ry="4.6" transform="matrix(0.9397 0.3421 -0.3421 0.9397 28.6895 -83.1131)"/><circle id="circle99" cx="273.8" cy="45.4" r="6.4" fill="#EFD13B" stroke="#EFD039" stroke-miterlimit="10" stroke-width="2.009"/><circle id="circle101" cx="260.1" cy="64.6" r="5.3" fill="#D9346B" stroke="#D9336B" stroke-miterlimit="10" stroke-width="1.254"/><circle id="circle103" cx="271.2" cy="52.3" r="2.7" fill="#33A1DB" stroke="#34A1DB" stroke-miterlimit="10" stroke-width="2.799"/><circle id="circle105" cx="81.5" cy="56.3" r="2.7" fill="#D9346B" stroke="#D9336B" stroke-miterlimit="10" stroke-width="1.254"/></svg>